<svg width="10" height="10" viewBox="0 0 10 10" fill="none" xmlns="http://www.w3.org/2000/svg">
<path fill-rule="evenodd" clip-rule="evenodd" d="M5 10C7.76142 10 10 7.76142 10 5C10 2.23858 7.76142 0 5 0C2.23858 0 0 2.23858 0 5C0 7.76142 2.23858 10 5 10ZM4.64781 8.35355C4.6988 8.40455 4.75807 8.44222 4.82129 8.46658C4.86838 8.48477 4.91892 8.49603 4.97165 8.49912C4.99144 8.50029 5.01128 8.50029 5.03107 8.49912C5.0838 8.49603 5.13434 8.48477 5.18143 8.46658C5.24465 8.44222 5.30392 8.40455 5.35491 8.35355L7.47623 6.23223C7.6715 6.03697 7.6715 5.72039 7.47623 5.52513C7.28097 5.32986 6.96439 5.32986 6.76913 5.52513L5.50136 6.79289V1.99999C5.50136 1.72385 5.2775 1.49999 5.00136 1.49999C4.72522 1.49999 4.50136 1.72385 4.50136 1.99999V6.79289L3.23359 5.52513C3.03833 5.32986 2.72175 5.32986 2.52649 5.52513C2.33122 5.72039 2.33122 6.03697 2.52649 6.23223L4.64781 8.35355Z" fill="#F0F0F0"/>
</svg>
