<svg width="10" height="10" viewBox="0 0 10 10" fill="none" xmlns="http://www.w3.org/2000/svg">
<path fill-rule="evenodd" clip-rule="evenodd" d="M5 10C7.76142 10 10 7.76142 10 5C10 2.23858 7.76142 0 5 0C2.23858 0 0 2.23858 0 5C0 7.76142 2.23858 10 5 10ZM5.35488 1.64645C5.30388 1.59545 5.24462 1.55778 5.1814 1.53342C5.1343 1.51523 5.08377 1.50397 5.03104 1.50088C5.01125 1.49971 4.9914 1.49971 4.97161 1.50088C4.91888 1.50397 4.86835 1.51523 4.82125 1.53342C4.75803 1.55778 4.69877 1.59545 4.64777 1.64645L2.52645 3.76777C2.33119 3.96303 2.33119 4.27961 2.52645 4.47487C2.72171 4.67014 3.0383 4.67014 3.23356 4.47487L4.50133 3.20711V8.00001C4.50133 8.27615 4.72518 8.50001 5.00133 8.50001C5.27747 8.50001 5.50133 8.27615 5.50133 8.00001V3.20711L6.76909 4.47487C6.96435 4.67014 7.28094 4.67014 7.4762 4.47487C7.67146 4.27961 7.67146 3.96303 7.4762 3.76777L5.35488 1.64645Z" fill="#F0F0F0"/>
</svg>
