<svg width="10" height="10" viewBox="0 0 10 10" fill="none" xmlns="http://www.w3.org/2000/svg">
<path fill-rule="evenodd" clip-rule="evenodd" d="M10 5C10 7.76142 7.76142 10 5 10C2.23858 10 0 7.76142 0 5C0 2.23858 2.23858 0 5 0C7.76142 0 10 2.23858 10 5ZM4.82153 7.46658C4.75831 7.44222 4.69904 7.40455 4.64805 7.35355L2.52673 5.23223C2.33147 5.03697 2.33147 4.72039 2.52673 4.52513C2.72199 4.32986 3.03858 4.32986 3.23384 4.52513L4.5016 5.79289L4.5016 1.99999C4.5016 1.72385 4.72546 1.49999 5.0016 1.49999C5.27775 1.49999 5.5016 1.72385 5.5016 1.99999L5.5016 5.79289L6.76937 4.52513C6.96463 4.32986 7.28122 4.32986 7.47648 4.52513C7.67174 4.72039 7.67174 5.03697 7.47648 5.23223L5.35516 7.35355C5.30416 7.40455 5.2449 7.44222 5.18168 7.46658C5.13458 7.48477 5.08405 7.49603 5.03132 7.49912C5.02154 7.4997 5.01174 7.49999 5.00195 7.5H7C7.27614 7.5 7.5 7.72386 7.5 8C7.5 8.27614 7.27614 8.5 7 8.5H3C2.72386 8.5 2.5 8.27614 2.5 8C2.5 7.72386 2.72386 7.5 3 7.5H5.00126C4.99147 7.49999 4.98167 7.4997 4.97189 7.49912C4.91916 7.49603 4.86863 7.48477 4.82153 7.46658Z" fill="#F0F0F0"/>
</svg>
