<svg width="10" height="10" viewBox="0 0 10 10" fill="none" xmlns="http://www.w3.org/2000/svg">
<g clip-path="url(#clip0_454_174)">
<path fill-rule="evenodd" clip-rule="evenodd" d="M6.66667 1.11111C6.35984 1.11111 6.11111 0.86238 6.11111 0.555556C6.11111 0.248731 6.35984 0 6.66667 0H9.44444C9.75127 0 10 0.248731 10 0.555556V3.33333C10 3.64016 9.75127 3.88889 9.44444 3.88889C9.13762 3.88889 8.88889 3.64016 8.88889 3.33333V1.89679L4.83728 5.94839C4.62032 6.16535 4.26857 6.16535 4.05161 5.94839C3.83465 5.73144 3.83465 5.37968 4.05161 5.16272L8.10322 1.11111H6.66667ZM0.488155 1.59927C0.800716 1.28671 1.22464 1.11111 1.66667 1.11111H5C5.30683 1.11111 5.55556 1.35984 5.55556 1.66667C5.55556 1.97349 5.30683 2.22222 5 2.22222H1.66667C1.51932 2.22222 1.37802 2.28075 1.27383 2.38494C1.16964 2.48913 1.11111 2.63044 1.11111 2.77778V8.33333C1.11111 8.48068 1.16964 8.62198 1.27383 8.72617C1.37802 8.83036 1.51932 8.88889 1.66667 8.88889H7.22222C7.36956 8.88889 7.51087 8.83036 7.61506 8.72617C7.71925 8.62198 7.77778 8.48068 7.77778 8.33333V5C7.77778 4.69318 8.02651 4.44444 8.33333 4.44444C8.64016 4.44444 8.88889 4.69318 8.88889 5V8.33333C8.88889 8.77536 8.71329 9.19928 8.40073 9.51185C8.08817 9.82441 7.66425 10 7.22222 10H1.66667C1.22464 10 0.800716 9.82441 0.488155 9.51185C0.175595 9.19928 0 8.77536 0 8.33333V2.77778C0 2.33575 0.175595 1.91183 0.488155 1.59927Z" fill="#101010"/>
</g>
<defs>
<clipPath id="clip0_454_174">
<rect width="10" height="10" fill="white"/>
</clipPath>
</defs>
</svg>
