<svg width="10" height="10" viewBox="0 0 10 10" fill="none" xmlns="http://www.w3.org/2000/svg">
<path fill-rule="evenodd" clip-rule="evenodd" d="M4.82165 7.46658C4.75843 7.44222 4.69917 7.40455 4.64817 7.35355L2.52685 5.23223C2.33159 5.03697 2.33159 4.72039 2.52685 4.52513C2.72211 4.32986 3.0387 4.32986 3.23396 4.52513L4.50173 5.79289L4.50173 1.99999C4.50173 1.72385 4.72558 1.49999 5.00173 1.49999C5.27787 1.49999 5.50173 1.72385 5.50173 1.99999L5.50173 5.79289L6.76949 4.52513C6.96476 4.32986 7.28134 4.32986 7.4766 4.52513C7.67186 4.72039 7.67186 5.03697 7.4766 5.23223L5.35528 7.35355C5.30429 7.40455 5.24502 7.44222 5.1818 7.46658C5.13471 7.48477 5.08417 7.49603 5.03144 7.49912C5.01165 7.50029 4.9918 7.50029 4.97202 7.49912C4.91928 7.49603 4.86875 7.48477 4.82165 7.46658Z" fill="#0B0B0B"/>
<rect x="2.5" y="7.5" width="5" height="1" rx="0.5" fill="#0B0B0B"/>
</svg>
