<svg width="10" height="10" viewBox="0 0 10 10" fill="none" xmlns="http://www.w3.org/2000/svg">
<g clip-path="url(#clip0_80_957)">
<path d="M9.00828 1.72681H0.991739C0.444866 1.72681 0 2.17165 0 2.71855V7.28143C0 7.8283 0.444866 8.27317 0.991739 8.27317H9.00826C9.55513 8.27317 9.99998 7.8283 9.99998 7.28143V2.71855C10 2.17165 9.55516 1.72681 9.00828 1.72681ZM9.33886 2.71855V7.28143C9.33886 7.33359 9.32417 7.38121 9.30253 7.4251L6.96539 5.08778L9.33819 2.71498L9.33886 2.71855ZM0.661159 7.28141V2.71855L0.661828 2.715L3.03463 5.0878L0.697329 7.42508C0.67585 7.38119 0.661159 7.33359 0.661159 7.28141ZM5.10204 6.01628C5.04749 6.0708 4.95253 6.0708 4.89798 6.01628L1.26986 2.38797H8.73033L5.10204 6.01628ZM3.50209 5.55528L4.43052 6.48374C4.58274 6.63593 4.78499 6.7197 5.00001 6.7197C5.21501 6.7197 5.41728 6.63593 5.5695 6.48374L6.49797 5.55528L8.55452 7.61201H1.44534L3.50209 5.55528Z" fill="#F0F0F0"/>
</g>
<defs>
<clipPath id="clip0_80_957">
<rect width="10" height="10" fill="white"/>
</clipPath>
</defs>
</svg>
