<svg width="10" height="10" viewBox="0 0 10 10" fill="none" xmlns="http://www.w3.org/2000/svg">
<rect y="2.14001" width="10" height="5.72" rx="2.86" fill="#F0F0F0"/>
<rect x="3.39001" y="2.5" width="6.25" height="5" rx="2.5" fill="#505050"/>
<g clip-path="url(#clip0_1_39)">
<path fill-rule="evenodd" clip-rule="evenodd" d="M6.63292 3.00527C6.73498 2.997 6.76519 3.13577 6.68202 3.1955C6.04327 3.65426 5.75946 4.49762 6.04165 5.27295C6.32385 6.04827 7.08336 6.51189 7.86756 6.45274C7.96967 6.44504 8.03573 6.57076 7.95222 6.63002C7.80917 6.73156 7.65028 6.81581 7.47745 6.87872C6.43949 7.2565 5.29181 6.72133 4.91402 5.68337C4.53624 4.64542 5.07141 3.49773 6.10937 3.11995C6.2822 3.05704 6.45807 3.01945 6.63292 3.00527Z" fill="#F0F0F0" fill-opacity="0.5"/>
</g>
<defs>
<clipPath id="clip0_1_39">
<rect width="4" height="4" fill="white" transform="translate(4.51001 3)"/>
</clipPath>
</defs>
</svg>
