<svg width="10" height="10" viewBox="0 0 10 10" fill="none" xmlns="http://www.w3.org/2000/svg">
<rect y="2.14001" width="10" height="5.72" rx="2.86" fill="#F0F0F0"/>
<circle cx="7.13965" cy="5" r="2.5" fill="#505050"/>
<g clip-path="url(#clip0_105_838)">
<path fill-rule="evenodd" clip-rule="evenodd" d="M7.26232 3.00529C7.36438 2.99702 7.39459 3.13578 7.31142 3.19551C6.67266 3.65428 6.38885 4.49763 6.67105 5.27296C6.95324 6.04829 7.71275 6.51191 8.49696 6.45276C8.59906 6.44506 8.66512 6.57077 8.58162 6.63004C8.43856 6.73157 8.27967 6.81583 8.10684 6.87873C7.06888 7.25652 5.9212 6.72134 5.54342 5.68339C5.16563 4.64543 5.7008 3.49775 6.73876 3.11996C6.91159 3.05706 7.08746 3.01946 7.26232 3.00529Z" fill="#F0F0F0"/>
</g>
<defs>
<clipPath id="clip0_105_838">
<rect width="4" height="4" fill="white" transform="translate(5.13965 3)"/>
</clipPath>
</defs>
</svg>
