<svg width="10" height="6" viewBox="0 0 10 6" fill="none" xmlns="http://www.w3.org/2000/svg">
<g clip-path="url(#clip0_10_89)">
<rect y="0.139999" width="10" height="5.72" rx="2.86" fill="#001840"/>
<circle cx="2.85999" cy="3" r="2.5" fill="#5B6B85"/>
<g clip-path="url(#clip1_10_89)">
<circle cx="2.86" cy="3" r="1.1" fill="#EEF4FF"/>
<rect x="2.76" y="1.1" width="0.2" height="0.6" rx="0.1" fill="#EEF4FF"/>
<rect x="0.960001" y="3.1" width="0.2" height="0.6" rx="0.1" transform="rotate(-90 0.960001 3.1)" fill="#EEF4FF"/>
<rect x="1.58721" y="4.41421" width="0.2" height="0.6" rx="0.1" transform="rotate(-135 1.58721 4.41421)" fill="#EEF4FF"/>
<rect x="4.27421" y="4.2728" width="0.2" height="0.6" rx="0.1" transform="rotate(135 4.27421 4.2728)" fill="#EEF4FF"/>
<rect x="2.76" y="4.3" width="0.2" height="0.6" rx="0.1" fill="#EEF4FF"/>
<rect x="4.16" y="3.1" width="0.2" height="0.6" rx="0.1" transform="rotate(-90 4.16 3.1)" fill="#EEF4FF"/>
<rect x="3.84995" y="2.15147" width="0.2" height="0.6" rx="0.1" transform="rotate(-135 3.84995 2.15147)" fill="#EEF4FF"/>
<rect x="2.01147" y="2.01006" width="0.2" height="0.6" rx="0.1" transform="rotate(135 2.01147 2.01006)" fill="#EEF4FF"/>
</g>
</g>
<defs>
<clipPath id="clip0_10_89">
<rect width="10" height="6" fill="white"/>
</clipPath>
<clipPath id="clip1_10_89">
<rect width="4" height="4" fill="white" transform="translate(0.860001 1)"/>
</clipPath>
</defs>
</svg>
