<svg width="10" height="10" viewBox="0 0 10 10" fill="none" xmlns="http://www.w3.org/2000/svg">
<path d="M8.47095 1.77831C7.82363 1.47545 7.13149 1.25534 6.40787 1.13C6.31901 1.29068 6.21518 1.50678 6.1436 1.67869C5.37437 1.56301 4.61223 1.56301 3.85715 1.67869C3.78558 1.50678 3.6794 1.29068 3.58973 1.13C2.86534 1.25534 2.1724 1.47625 1.52508 1.77991C0.219434 3.75292 -0.134505 5.67691 0.0424653 7.57359C0.908438 8.22027 1.74767 8.61312 2.57274 8.87018C2.77645 8.58981 2.95814 8.29178 3.11466 7.97767C2.81656 7.8644 2.53105 7.72462 2.26128 7.56235C2.33285 7.50932 2.40286 7.45389 2.47049 7.39685C4.11591 8.16646 5.90371 8.16646 7.52947 7.39685C7.5979 7.45389 7.6679 7.50932 7.73868 7.56235C7.46812 7.72542 7.18183 7.8652 6.88373 7.97848C7.04025 8.29178 7.22115 8.59062 7.42565 8.87098C8.25151 8.61391 9.09152 8.22108 9.9575 7.57359C10.1651 5.37486 9.60278 3.46853 8.47095 1.77831ZM3.33882 6.40715C2.84488 6.40715 2.43981 5.94603 2.43981 5.38449C2.43981 4.82296 2.83623 4.36104 3.33882 4.36104C3.84143 4.36104 4.24648 4.82215 4.23783 5.38449C4.23861 5.94603 3.84143 6.40715 3.33882 6.40715ZM6.66114 6.40715C6.1672 6.40715 5.76213 5.94603 5.76213 5.38449C5.76213 4.82296 6.15854 4.36104 6.66114 4.36104C7.16373 4.36104 7.5688 4.82215 7.56015 5.38449C7.56015 5.94603 7.16373 6.40715 6.66114 6.40715Z" fill="#F0F0F0"/>
</svg>
