<svg width="10" height="10" viewBox="0 0 10 10" fill="none" xmlns="http://www.w3.org/2000/svg">
<path fill-rule="evenodd" clip-rule="evenodd" d="M4.66678 1.36665H3.68345C3.14037 1.36665 2.70011 1.8069 2.70011 2.34998C2.70011 2.89306 3.14037 3.33331 3.68345 3.33331H4.66678V1.36665ZM4.66678 0.699982H5.33345H6.31678C7.22808 0.699982 7.96675 1.43871 7.96675 2.34998C7.96675 2.88774 7.70955 3.36542 7.31135 3.66665C7.70955 3.96788 7.96675 4.44556 7.96675 4.98332C7.96675 5.89459 7.22808 6.63332 6.31678 6.63332C5.94832 6.63332 5.60807 6.51255 5.33345 6.30843V6.63332V7.61666C5.33345 8.52792 4.59471 9.26665 3.68345 9.26665C2.77217 9.26665 2.03345 8.52792 2.03345 7.61666C2.03345 7.07886 2.2907 6.60122 2.68886 6.29998C2.2907 5.99875 2.03345 5.52107 2.03345 4.98332C2.03345 4.44556 2.29071 3.96788 2.68887 3.66666C2.29071 3.36542 2.03345 2.88774 2.03345 2.34998C2.03345 1.43871 2.77217 0.699982 3.68345 0.699982H4.66678ZM5.33345 1.36665V3.33331H6.31678C6.85988 3.33331 7.30008 2.89306 7.30008 2.34998C7.30008 1.8069 6.85988 1.36665 6.31678 1.36665H5.33345ZM3.68345 5.96664H4.66678V4.98586V4.98332V4.98079V3.99999H3.68345C3.14037 3.99999 2.70011 4.44024 2.70011 4.98332C2.70011 5.5251 3.13826 5.96455 3.67955 5.96665L3.68345 5.96664ZM2.70011 7.61666C2.70011 7.07486 3.13826 6.63542 3.67955 6.63332L3.68345 6.63332H4.66678V7.61666C4.66678 8.15972 4.22653 8.59999 3.68345 8.59999C3.14037 8.59999 2.70011 8.15972 2.70011 7.61666ZM5.33345 4.98136C5.33451 4.43918 5.77435 3.99999 6.31678 3.99999C6.85988 3.99999 7.30008 4.44024 7.30008 4.98332C7.30008 5.5264 6.85988 5.96665 6.31678 5.96665C5.77435 5.96665 5.33451 5.52746 5.33345 4.98528V4.98136Z" fill="#F0F0F0"/>
</svg>
