<svg width="10" height="10" viewBox="0 0 10 10" fill="none" xmlns="http://www.w3.org/2000/svg">
<g clip-path="url(#clip0_259_1114)">
<path fill-rule="evenodd" clip-rule="evenodd" d="M5 0.125C2.2375 0.125 0 2.3625 0 5.125C0 7.3375 1.43125 9.20625 3.41875 9.86875C3.66875 9.9125 3.7625 9.7625 3.7625 9.63125C3.7625 9.5125 3.75625 9.11875 3.75625 8.7C2.5 8.93125 2.175 8.39375 2.075 8.1125C2.01875 7.96875 1.775 7.525 1.5625 7.40625C1.3875 7.3125 1.1375 7.08125 1.55625 7.075C1.95 7.06875 2.23125 7.4375 2.325 7.5875C2.775 8.34375 3.49375 8.13125 3.78125 8C3.825 7.675 3.95625 7.45625 4.1 7.33125C2.9875 7.20625 1.825 6.775 1.825 4.8625C1.825 4.31875 2.01875 3.86875 2.3375 3.51875C2.2875 3.39375 2.1125 2.88125 2.3875 2.19375C2.3875 2.19375 2.80625 2.0625 3.7625 2.70625C4.1625 2.59375 4.5875 2.5375 5.0125 2.5375C5.4375 2.5375 5.8625 2.59375 6.2625 2.70625C7.21875 2.05625 7.6375 2.19375 7.6375 2.19375C7.9125 2.88125 7.7375 3.39375 7.6875 3.51875C8.00625 3.86875 8.2 4.3125 8.2 4.8625C8.2 6.78125 7.03125 7.20625 5.91875 7.33125C6.1 7.4875 6.25625 7.7875 6.25625 8.25625C6.25625 8.925 6.25 9.4625 6.25 9.63125C6.25 9.7625 6.34375 9.91875 6.59375 9.86875C8.56875 9.20625 10 7.33125 10 5.125C10 2.3625 7.7625 0.125 5 0.125Z" fill="#F0F0F0"/>
</g>
<defs>
<clipPath id="clip0_259_1114">
<rect width="10" height="10" fill="white"/>
</clipPath>
</defs>
</svg>
