<svg width="992" height="391" viewBox="0 0 992 391" fill="none" xmlns="http://www.w3.org/2000/svg">
<path d="M275.882 76.9487L250.816 357.848L138.14 389.095L25.7749 357.892L0.734863 76.9487H275.882Z" fill="#E44D26"/>
<path d="M138.309 365.211L229.356 339.961L250.777 99.9199H138.309V365.211Z" fill="#F16529"/>
<path d="M138.189 238.574H180.605L176.607 283.261L138.189 293.634V329.481L208.805 309.904L209.323 304.083L217.417 213.37L218.258 204.118H208.975H138.189V238.574Z" fill="white"/>
<path d="M138.189 168.749V168.833H221.281H221.392L222.083 161.089L223.652 143.621L224.476 134.377H138.189V155.777V168.749Z" fill="white"/>
<path d="M97.3431 255.803H78.702H62.7651L67.591 309.904L138.15 329.498L138.309 329.454V293.605L138.158 293.645L99.7954 283.283L97.3431 255.803Z" fill="#EBEBEB"/>
<path d="M89.5802 168.833H138.309V134.377H138.19H51.9355L52.7601 143.621L61.2261 238.574H138.309V204.117H92.7282L89.5802 168.833Z" fill="#EBEBEB"/>
<path d="M208.354 0.600372H225.864V35.6726H250.48V52.9894H208.354V0.600372Z" fill="#F0F0F0"/>
<path d="M140.685 0.600372H158.938L170.166 19.0083L181.382 0.600372H199.642V52.9894H182.209V27.0225L170.166 45.6498H169.864L157.813 27.0225V52.9894H140.685V0.600372Z" fill="#F0F0F0"/>
<path d="M100.091 17.9734H84.6802V0.600372H133.014V17.9734H117.597V52.9894H100.091L100.091 17.9734Z" fill="#F0F0F0"/>
<path d="M26.0483 0.600372H43.5531V17.9005H59.5658V0.600372H77.0714V52.9894H59.5666V35.4465H43.5539V52.9894H26.0491L26.0483 0.600372Z" fill="#F0F0F0"/>
<path d="M633.574 76.9487L608.507 357.848L495.832 389.095L383.466 357.892L358.426 76.9487H633.574Z" fill="#2062AF"/>
<path d="M496 365.211L587.047 339.961L608.468 99.9199H496V365.211Z" fill="#3C9CD7"/>
<path d="M496 202.559V235.852H537.272L534.796 280.151L496 290.882V328.027L566.163 307.391L575.242 202.559H496Z" fill="white"/>
<path d="M581.666 133.772L496 169.404V202.559L578.269 167.503L581.666 133.772Z" fill="white"/>
<path d="M496 133.772H581.666L578.269 167.504L496 167.499L496 133.772Z" fill="white"/>
<path d="M496 290.882L495.45 291.157L458.03 281.527L455.828 254.287H420.885L425.562 307.116L496 328.027V290.882Z" fill="#EBEBEB"/>
<path d="M496 202.559H415.932L418.684 235.852H496V202.559Z" fill="#EBEBEB"/>
<path d="M415.932 202.559L418.684 235.852L496 202.559V169.404L415.932 202.559Z" fill="#EBEBEB"/>
<path d="M496 133.772H408.778L412.954 167.498H496V133.772Z" fill="#EBEBEB"/>
<path d="M431.716 36.0747V19.1357H456.43V0.600372H413.181V52.9886H456.43V36.0747H431.716Z" fill="#F0F0F0"/>
<path d="M500.41 19.1357H517.688V0.600372H474.435V19.1357C480.221 24.9224 483.239 27.6921 491.608 36.0613C486.716 36.0613 474.435 36.0789 474.435 36.078V52.9886H517.688V36.0747L500.41 19.1357Z" fill="#F0F0F0"/>
<path d="M561.67 19.1357H578.948V0.600372H535.693V19.1357C541.48 24.9224 544.499 27.6921 552.868 36.0613C547.978 36.0613 535.693 36.0789 535.693 36.078V52.9886H578.949V36.0747L561.67 19.1357Z" fill="#F0F0F0"/>
<path d="M991.265 77.9171L966.198 358.816L853.523 390.063L741.158 358.86L716.118 77.9171H991.265Z" fill="#DAB92C"/>
<path d="M853.691 366.179L944.739 340.929L966.16 100.888H853.691V366.179Z" fill="#FCD83A"/>
<path d="M860.02 134.323H939.812L936.786 168.716H890.561L888.635 204.21H933.484L924.129 309.867L860.02 327.752V291.432L892.212 283.453L897.715 235.302L860.02 238.604V134.323Z" fill="white"/>
<path d="M847.363 327.752V134.323H818.197L823.15 291.432L801.688 283.453L800.863 263.642L778.301 255.663L782.978 309.867L847.363 327.752Z" fill="#EBEBEB"/>
<path d="M886.82 19.1357H904.099V0.600372H860.845V19.1357C866.632 24.9224 869.65 27.6921 878.019 36.0613C873.127 36.0613 860.845 36.0789 860.845 36.078V52.9886H904.099V36.0747L886.82 19.1357Z" fill="#F0F0F0"/>
<path d="M846.263 0.600372H828.378V35.5442H822.05V29.2158H803.064V53.704H846.263V0.600372Z" fill="#F0F0F0"/>
</svg>
