<svg width="992" height="391" viewBox="0 0 992 391" fill="none" xmlns="http://www.w3.org/2000/svg">
<path d="M275.882 77.0832L250.816 357.982L138.14 389.229L25.7749 358.026L0.734863 77.0832H275.882Z" fill="#E44D26"/>
<path d="M138.309 365.345L229.356 340.095L250.777 100.054H138.309V365.345Z" fill="#F16529"/>
<path d="M138.189 238.708H180.605L176.607 283.396L138.189 293.768V329.616L208.805 310.039L209.323 304.217L217.417 213.505L218.258 204.252H208.975H138.189V238.708Z" fill="white"/>
<path d="M138.189 168.884V168.968H221.281H221.392L222.083 161.223L223.652 143.755L224.476 134.511H138.189V155.912V168.884Z" fill="white"/>
<path d="M97.3431 255.937H78.702H62.7651L67.591 310.039L138.15 329.633L138.309 329.589V293.739L138.158 293.78L99.7954 283.418L97.3431 255.937Z" fill="#EBEBEB"/>
<path d="M89.5802 168.968H138.309V134.511H138.19H51.9355L52.7601 143.755L61.2261 238.708H138.309V204.252H92.7282L89.5802 168.968Z" fill="#EBEBEB"/>
<path d="M208.354 0.734863H225.864V35.8071H250.48V53.1239H208.354V0.734863Z" fill="#0B0B0B"/>
<path d="M140.685 0.734863H158.938L170.166 19.1428L181.382 0.734863H199.642V53.1239H182.209V27.157L170.166 45.7843H169.864L157.813 27.157V53.1239H140.685V0.734863Z" fill="#0B0B0B"/>
<path d="M100.091 18.1078H84.6802V0.734863H133.014V18.1078H117.597V53.1239H100.091L100.091 18.1078Z" fill="#0B0B0B"/>
<path d="M26.0483 0.734863H43.5531V18.035H59.5658V0.734863H77.0714V53.1239H59.5666V35.581H43.5539V53.1239H26.0491L26.0483 0.734863Z" fill="#0B0B0B"/>
<path d="M633.574 77.0832L608.507 357.982L495.832 389.229L383.466 358.026L358.426 77.0832H633.574Z" fill="#2062AF"/>
<path d="M496 365.345L587.047 340.095L608.468 100.054H496V365.345Z" fill="#3C9CD7"/>
<path d="M496 202.694V235.987H537.272L534.796 280.286L496 291.016V328.161L566.163 307.525L575.242 202.694H496Z" fill="white"/>
<path d="M581.666 133.907L496 169.538V202.694L578.269 167.637L581.666 133.907Z" fill="white"/>
<path d="M496 133.907H581.666L578.269 167.638L496 167.633L496 133.907Z" fill="white"/>
<path d="M496 291.016L495.45 291.292L458.03 281.661L455.828 254.422H420.885L425.562 307.25L496 328.161V291.016Z" fill="#EBEBEB"/>
<path d="M496 202.694H415.932L418.684 235.987H496V202.694Z" fill="#EBEBEB"/>
<path d="M415.932 202.694L418.684 235.987L496 202.694V169.538L415.932 202.694Z" fill="#EBEBEB"/>
<path d="M496 133.907H408.778L412.954 167.633H496V133.907Z" fill="#EBEBEB"/>
<path d="M431.716 36.2092V19.2702H456.43V0.734863H413.181V53.1231H456.43V36.2092H431.716Z" fill="#0B0B0B"/>
<path d="M500.41 19.2702H517.688V0.734863H474.435V19.2702C480.221 25.0569 483.239 27.8266 491.608 36.1958C486.716 36.1958 474.435 36.2134 474.435 36.2125V53.1231H517.688V36.2092L500.41 19.2702Z" fill="#0B0B0B"/>
<path d="M561.67 19.2702H578.948V0.734863H535.693V19.2702C541.48 25.0569 544.499 27.8266 552.868 36.1958C547.978 36.1958 535.693 36.2134 535.693 36.2125V53.1231H578.949V36.2092L561.67 19.2702Z" fill="#0B0B0B"/>
<path d="M991.265 78.0516L966.198 358.95L853.523 390.198L741.158 358.994L716.118 78.0516H991.265Z" fill="#DAB92C"/>
<path d="M853.691 366.314L944.739 341.064L966.16 101.023H853.691V366.314Z" fill="#FCD83A"/>
<path d="M860.02 134.457H939.812L936.786 168.851H890.561L888.635 204.345H933.484L924.129 310.002L860.02 327.886V291.567L892.212 283.587L897.715 235.436L860.02 238.738V134.457Z" fill="white"/>
<path d="M847.363 327.886V134.457H818.197L823.15 291.567L801.688 283.587L800.863 263.777L778.301 255.797L782.978 310.002L847.363 327.886Z" fill="#EBEBEB"/>
<path d="M886.82 19.2702H904.099V0.734863H860.845V19.2702C866.632 25.0569 869.65 27.8266 878.019 36.1958C873.127 36.1958 860.845 36.2134 860.845 36.2125V53.1231H904.099V36.2092L886.82 19.2702Z" fill="#0B0B0B"/>
<path d="M846.263 0.734863H828.378V35.6787H822.05V29.3503H803.064V53.8385H846.263V0.734863Z" fill="#0B0B0B"/>
</svg>
