<svg width="10" height="10" viewBox="0 0 10 10" fill="none" xmlns="http://www.w3.org/2000/svg">
<path fill-rule="evenodd" clip-rule="evenodd" d="M0.739062 0C0.331016 0 0 0.320937 0 0.716328V9.28391C0 9.67934 0.331055 10 0.739062 10H9.26094C9.66914 10 10 9.6793 10 9.28379V0.716328C10 0.320937 9.66914 0 9.26094 0H0.739062ZM3.03891 3.86664V8.36867H1.5425V3.86664H3.03891ZM3.13754 2.47434C3.13754 2.90637 2.81274 3.25207 2.29102 3.25207L2.2909 3.25203H2.28121C1.77899 3.25203 1.4543 2.90633 1.4543 2.4743C1.4543 2.03246 1.78879 1.69641 2.30094 1.69641C2.81274 1.69641 3.12777 2.03246 3.13754 2.47434ZM5.36348 8.36867H3.86719L3.86715 8.36883C3.86715 8.36883 3.8868 4.28914 3.86727 3.8668H5.36359V4.50404C5.56251 4.19734 5.91851 3.76109 6.71223 3.76109C7.69672 3.76109 8.43484 4.40457 8.43484 5.78734V8.36867H6.93859V5.96047C6.93859 5.3552 6.72191 4.94238 6.18059 4.94238C5.76711 4.94238 5.5209 5.22078 5.41277 5.48973C5.37324 5.5857 5.36348 5.72043 5.36348 5.8548V8.36867Z" fill="#F0F0F0"/>
</svg>
