<svg width="475" height="138" viewBox="0 0 475 138" fill="none" xmlns="http://www.w3.org/2000/svg">
<path d="M179.022 58.6678C179.022 44.1056 174.87 36.6296 166.565 36.2202C163.261 36.0642 160.035 36.5906 156.896 37.809C154.391 38.7057 152.705 39.5927 151.818 40.4894V75.2476C157.13 78.5811 161.848 80.1308 165.961 79.8872C174.665 79.3121 179.022 72.2455 179.022 58.6678ZM189.266 59.2721C189.266 66.6701 187.531 72.8108 184.042 77.6941C180.153 83.2207 174.763 86.0668 167.871 86.2228C162.676 86.3885 157.325 84.7607 151.818 81.3492V112.94L142.909 109.762V39.6414C144.371 37.848 146.252 36.3079 148.533 35.0018C153.836 31.912 160.278 30.3232 167.862 30.2452L167.988 30.372C174.919 30.2842 180.26 33.1304 184.013 38.9007C187.512 44.1933 189.266 50.9773 189.266 59.2721Z" fill="#F0F0F0"/>
<path d="M243.714 80.0041C243.714 89.9267 242.719 96.7984 240.731 100.619C238.733 104.44 234.932 107.491 229.317 109.762C224.765 111.555 219.843 112.53 214.56 112.696L213.088 107.082C218.459 106.351 222.241 105.619 224.434 104.888C228.752 103.426 231.715 101.185 233.343 98.1824C234.649 95.7359 235.292 91.0671 235.292 84.1564V81.8366C229.2 84.6048 222.816 85.9791 216.139 85.9791C211.753 85.9791 207.883 84.6048 204.55 81.8366C200.807 78.8247 198.936 75.0039 198.936 70.374V33.2961L207.844 30.2452V67.5668C207.844 71.5534 209.131 74.6237 211.704 76.7778C214.277 78.9319 217.611 79.9651 221.695 79.8872C225.779 79.7994 230.155 78.2204 234.805 75.1306V31.5903H243.714V80.0041Z" fill="#F0F0F0"/>
<path d="M278.491 85.7354C277.429 85.8231 276.454 85.8621 275.557 85.8621C270.518 85.8621 266.59 84.6632 263.783 82.2557C260.985 79.8482 259.582 76.5244 259.582 72.2844V37.1949H253.48V31.5903H259.582V16.7065L268.481 13.5387V31.5903H278.491V37.1949H268.481V72.0407C268.481 75.384 269.377 77.7525 271.171 79.1366C272.711 80.277 275.157 80.9301 278.491 81.0958V85.7354Z" fill="#F0F0F0"/>
<path d="M332.432 85.0044H323.523V50.6166C323.523 47.1174 322.704 44.1056 321.076 41.5908C319.195 38.7447 316.583 37.3216 313.23 37.3216C309.146 37.3216 304.038 39.4757 297.907 43.7839V85.0044H288.999V2.80716L297.907 0V37.4386C303.6 33.2961 309.818 31.2199 316.573 31.2199C321.291 31.2199 325.112 32.8087 328.036 35.9765C330.97 39.1443 332.432 43.0919 332.432 47.8095V85.0044Z" fill="#F0F0F0"/>
<path d="M379.783 57.2642C379.783 51.6693 378.721 47.0492 376.605 43.3941C374.091 38.9396 370.182 36.5906 364.899 36.3469C355.133 36.9123 350.259 43.9107 350.259 57.3227C350.259 63.4731 351.273 68.6098 353.32 72.7328C355.932 77.9865 359.85 80.5792 365.075 80.4915C374.88 80.4135 379.783 72.6743 379.783 57.2642ZM389.54 57.3227C389.54 65.286 387.503 71.914 383.438 77.2067C378.964 83.1329 372.785 86.1058 364.899 86.1058C357.082 86.1058 350.99 83.1329 346.594 77.2067C342.608 71.914 340.619 65.286 340.619 57.3227C340.619 49.8369 342.773 43.5403 347.081 38.4133C351.633 32.9744 357.618 30.2452 365.016 30.2452C372.414 30.2452 378.438 32.9744 383.077 38.4133C387.386 43.5403 389.54 49.8369 389.54 57.3227Z" fill="#F0F0F0"/>
<path d="M440.614 85.0044H431.706V48.6672C431.706 44.6807 430.507 41.5714 428.109 39.3295C425.711 37.0974 422.514 36.0155 418.527 36.1032C414.297 36.1812 410.272 37.5653 406.451 40.2458V85.0044H397.542V39.1443C402.669 35.4112 407.387 32.9744 411.695 31.834C415.759 30.7716 419.346 30.2452 422.436 30.2452C424.551 30.2452 426.54 30.4499 428.411 30.8593C431.91 31.6683 434.756 33.1694 436.949 35.3722C439.396 37.809 440.614 40.7331 440.614 44.1543V85.0044Z" fill="#F0F0F0"/>
<path d="M54.9188 3.13642C50.3351 3.15772 45.9578 3.54863 42.1063 4.23017C30.7601 6.23467 28.7 10.4303 28.7 18.1677V28.3864H55.5125V31.7927H28.7H18.6375C10.8451 31.7927 4.02178 36.4764 1.88754 45.3864C-0.574285 55.5994 -0.68348 61.9724 1.88754 72.6364C3.79346 80.5743 8.34508 86.2302 16.1375 86.2302H25.3563V73.9802C25.3563 65.1303 33.0134 57.3239 42.1063 57.3239H68.8875C76.3425 57.3239 82.2938 51.1858 82.2938 43.6989V18.1677C82.2938 10.9013 76.1638 5.44289 68.8875 4.23017C64.2815 3.46344 59.5024 3.11512 54.9188 3.13642ZM40.4188 11.3552C43.1883 11.3552 45.45 13.6538 45.45 16.4802C45.45 19.2965 43.1883 21.5739 40.4188 21.5739C37.6393 21.5739 35.3875 19.2965 35.3875 16.4802C35.3875 13.6538 37.6393 11.3552 40.4188 11.3552Z" fill="url(#paint0_linear_1008_133)"/>
<path d="M85.6377 31.7926V43.6989C85.6377 52.9296 77.8118 60.6989 68.8877 60.6989H42.1064C34.7706 60.6989 28.7002 66.9773 28.7002 74.3239V99.8551C28.7002 107.121 35.0188 111.395 42.1064 113.48C50.5938 115.976 58.7327 116.427 68.8877 113.48C75.6379 111.526 82.2939 107.592 82.2939 99.8551V89.6364H55.5127V86.2301H82.2939H95.7002C103.493 86.2301 106.396 80.7947 109.106 72.6364C111.906 64.2375 111.787 56.1606 109.106 45.3864C107.181 37.6289 103.503 31.7926 95.7002 31.7926H85.6377ZM70.5752 96.4489C73.3547 96.4489 75.6064 98.7263 75.6064 101.543C75.6064 104.369 73.3547 106.668 70.5752 106.668C67.8056 106.668 65.5439 104.369 65.5439 101.543C65.5439 98.7263 67.8056 96.4489 70.5752 96.4489Z" fill="url(#paint1_linear_1008_133)"/>
<path d="M457.963 23.6477H459.525V13.8515H463.225V12.6838H454.263V13.8515H457.963V23.6477ZM464.61 23.6477H465.945V14.7007L468.841 23.6466H470.327L473.345 14.731V23.6477H474.801V12.6838H472.875L469.577 22.0767L466.764 12.6838H464.61V23.6477Z" fill="#F0F0F0"/>
<path opacity="0.44382" d="M91.7477 130.836C91.7477 131.751 90.8183 132.657 89.0126 133.502C87.2069 134.348 84.5603 135.116 81.2238 135.763C77.8873 136.41 73.9263 136.923 69.5669 137.273C65.2076 137.623 60.5352 137.804 55.8167 137.804C51.0982 137.804 46.4259 137.623 42.0665 137.273C37.7072 136.923 33.7462 136.41 30.4097 135.763C27.0732 135.116 24.4265 134.348 22.6208 133.502C20.8151 132.657 19.8857 131.751 19.8857 130.836C19.8857 129.921 20.8151 129.015 22.6208 128.17C24.4265 127.325 27.0732 126.557 30.4097 125.91C33.7462 125.263 37.7072 124.749 42.0665 124.399C46.4259 124.049 51.0982 123.869 55.8167 123.869C60.5352 123.869 65.2076 124.049 69.5669 124.399C73.9263 124.749 77.8873 125.263 81.2238 125.91C84.5603 126.557 87.2069 127.325 89.0126 128.17C90.8183 129.015 91.7477 129.921 91.7477 130.836Z" fill="url(#paint2_radial_1008_133)"/>
<defs>
<linearGradient id="paint0_linear_1008_133" x1="8.75123e-08" y1="3.1355" x2="61.8267" y2="55.8204" gradientUnits="userSpaceOnUse">
<stop stop-color="#5A9FD4"/>
<stop offset="1" stop-color="#306998"/>
</linearGradient>
<linearGradient id="paint1_linear_1008_133" x1="69.9309" y1="100.683" x2="47.7498" y2="69.6012" gradientUnits="userSpaceOnUse">
<stop stop-color="#FFD43B"/>
<stop offset="1" stop-color="#FFE873"/>
</linearGradient>
<radialGradient id="paint2_radial_1008_133" cx="0" cy="0" r="1" gradientUnits="userSpaceOnUse" gradientTransform="translate(55.8167 130.836) rotate(-90) scale(6.96732 30.6243)">
<stop stop-color="#B8B8B8" stop-opacity="0.498039"/>
<stop offset="1" stop-color="#7F7F7F" stop-opacity="0"/>
</radialGradient>
</defs>
</svg>
