<svg width="10" height="10" viewBox="0 0 10 10" fill="none" xmlns="http://www.w3.org/2000/svg">
<path d="M9.16671 2.16559C8.86012 2.30159 8.53058 2.39346 8.18479 2.4348C8.53775 2.22321 8.80887 1.88817 8.9365 1.48892C8.60612 1.68488 8.24025 1.82713 7.85079 1.9038C7.53896 1.57151 7.09462 1.36392 6.60287 1.36392C5.65871 1.36392 4.89317 2.12938 4.89317 3.07355C4.89317 3.20755 4.90829 3.33805 4.93742 3.46317C3.5165 3.39188 2.25675 2.71121 1.4135 1.67684C1.26633 1.92934 1.182 2.22301 1.182 2.53634C1.182 3.12951 1.48383 3.6528 1.94258 3.95938C1.66233 3.95051 1.39871 3.87359 1.16821 3.74555C1.16804 3.75267 1.16804 3.75984 1.16804 3.76705C1.16804 4.59538 1.75737 5.28638 2.5395 5.44346C2.39604 5.48255 2.245 5.50342 2.08908 5.50342C1.97892 5.50342 1.87183 5.49267 1.76742 5.47276C1.985 6.15196 2.61637 6.6463 3.36454 6.66005C2.77942 7.11863 2.04225 7.39192 1.24121 7.39192C1.10321 7.39192 0.967124 7.38384 0.833374 7.36801C1.59 7.85313 2.48867 8.13621 3.45417 8.13621C6.59887 8.13621 8.31858 5.53105 8.31858 3.27176C8.31858 3.19763 8.31692 3.12392 8.31362 3.05055C8.64767 2.80955 8.9375 2.50842 9.16671 2.16559Z" fill="#F0F0F0"/>
</svg>
